<svg enable-background="new 0 0 32 32" version="1.1" viewBox="0 0 32 32" xml:space="preserve" xmlns="http://www.w3.org/2000/svg" xmlns:xlink="http://www.w3.org/1999/xlink"><g id="Flat_copy"><g><path d="M16.005-0.016c-8.837,0-16,7.163-16,16c0,8.836,7.163,16,16,16s16-7.164,16-16    C32.005,7.148,24.842-0.016,16.005-0.016z" fill="#333333"/></g><path d="M13.024,19.114c-0.956,0-1.733-0.777-1.733-1.732c0-0.955,0.777-1.732,1.733-1.732   c0.955,0,1.732,0.777,1.732,1.732C14.756,18.337,13.979,19.114,13.024,19.114z M25.56,17.906c0.026,0.198,0.04,0.393,0.04,0.583   c0,3.602-4.309,6.533-9.607,6.533s-9.607-2.931-9.607-6.533c0-0.197,0.015-0.401,0.043-0.608c-0.679-0.501-1.08-1.286-1.08-2.131   c0-1.465,1.192-2.656,2.656-2.656c0.571,0,1.127,0.186,1.584,0.526c1.647-1.001,3.746-1.585,5.953-1.655l1.692-4.809l4.055,0.969   c0.382-0.723,1.129-1.18,1.958-1.18c1.222,0,2.217,0.995,2.217,2.217c0,1.222-0.995,2.217-2.217,2.217   c-1.15,0-2.1-0.882-2.207-2.005l-2.987-0.714l-1.17,3.324c2.05,0.13,3.995,0.708,5.531,1.647c0.46-0.348,1.021-0.538,1.6-0.538   c1.465,0,2.656,1.192,2.656,2.656C26.672,16.613,26.259,17.406,25.56,17.906z M6.622,15.75c0,0.266,0.078,0.524,0.221,0.745   c0.35-0.742,0.898-1.441,1.611-2.055c-0.143-0.049-0.294-0.074-0.448-0.074C7.242,14.367,6.622,14.987,6.622,15.75z M24.326,18.489   c0-2.901-3.739-5.26-8.334-5.26s-8.334,2.36-8.334,5.26c0,2.9,3.739,5.26,8.334,5.26C20.588,23.749,24.326,21.39,24.326,18.489z    M23.542,14.45c0.717,0.62,1.267,1.328,1.614,2.078c0.157-0.228,0.243-0.498,0.243-0.778c0-0.763-0.621-1.384-1.383-1.384   C23.852,14.367,23.693,14.395,23.542,14.45z M22.304,9.164c0,0.521,0.424,0.944,0.944,0.944s0.944-0.424,0.944-0.944   c0-0.521-0.424-0.944-0.944-0.944S22.304,8.643,22.304,9.164z M19.191,20.469c-0.172,0-0.334,0.068-0.45,0.186   c-0.034,0.034-0.867,0.817-2.766,0.817c-1.876,0-2.632-0.784-2.634-0.786c-0.121-0.139-0.296-0.218-0.48-0.218   c-0.151,0-0.298,0.054-0.413,0.152c-0.129,0.11-0.208,0.265-0.221,0.434c-0.013,0.17,0.041,0.334,0.151,0.463   c0.03,0.035,0.307,0.349,0.894,0.648c0.753,0.384,1.662,0.579,2.703,0.579c1.034,0,1.955-0.192,2.736-0.569   c0.606-0.293,0.907-0.598,0.94-0.632c0.239-0.25,0.232-0.652-0.017-0.895C19.515,20.533,19.358,20.469,19.191,20.469z    M19.171,15.649c-0.956,0-1.733,0.777-1.733,1.732c0,0.955,0.777,1.732,1.733,1.732c0.955,0,1.732-0.777,1.732-1.732   C20.903,16.426,20.126,15.649,19.171,15.649z" fill="#FFFFFF"/></g></svg>